<svg width="27" height="27" viewBox="0 0 27 27" fill="none" xmlns="http://www.w3.org/2000/svg">
<g clip-path="url(#clip0_619_85)">
<path d="M24.956 0.278809H2.21962C1.16131 0.278809 0.303467 1.13665 0.303467 2.19496V24.9314C0.303467 25.9897 1.16131 26.8475 2.21962 26.8475H14.4959V16.5729H11.0451V12.5513H14.4959V9.5916C14.4959 6.15943 16.5913 4.29132 19.6529 4.29132C21.1192 4.29132 22.3795 4.40057 22.7468 4.44942V8.03666H20.6356C18.9698 8.03666 18.6473 8.82822 18.6473 9.98991V12.5513H22.63L22.1111 16.5729H18.6473V26.8475H24.956C26.0143 26.8475 26.8722 25.9897 26.8722 24.9314V2.19496C26.8722 1.13665 26.0143 0.278809 24.956 0.278809V0.278809Z" fill="#808080"/>
</g>
<defs>
<clipPath id="clip0_619_85">
<rect width="26.5687" height="26.5687" fill="white" transform="translate(0.303467 0.278809)"/>
</clipPath>
</defs>
</svg>
