<svg width="27" height="27" viewBox="0 0 27 27" fill="none" xmlns="http://www.w3.org/2000/svg">
<g clip-path="url(#clip0_619_86)">
<path d="M25.5793 1.28222C24.9105 0.613177 24.1089 0.278809 23.1751 0.278809H3.4214C2.4873 0.278809 1.686 0.613298 1.01696 1.28222C0.34804 1.95095 0.0136719 2.75237 0.0136719 3.68629V23.4398C0.0136719 24.3736 0.34798 25.1752 1.01696 25.844C1.686 26.5129 2.48748 26.8475 3.4214 26.8475H23.1749C24.1085 26.8475 24.9103 26.5129 25.5791 25.844C26.2482 25.1752 26.5822 24.3736 26.5822 23.4398V3.68629C26.5822 2.75219 26.2482 1.9512 25.5793 1.28222ZM9.55344 9.85275C10.597 8.84389 11.8511 8.33922 13.3156 8.33922C14.7914 8.33922 16.0512 8.84389 17.0949 9.85275C18.1387 10.8618 18.6603 12.0814 18.6603 13.5112C18.6603 14.9409 18.1387 16.1606 17.0949 17.1693C16.0512 18.1786 14.7919 18.6832 13.3156 18.6832C11.8511 18.6832 10.5971 18.1782 9.55344 17.1693C8.50969 16.1604 7.98787 14.9409 7.98787 13.5112C7.98787 12.0814 8.50969 10.8619 9.55344 9.85275ZM23.573 22.7309C23.573 23.0305 23.4689 23.2812 23.2615 23.4832C23.0535 23.6849 22.806 23.7858 22.5174 23.7858H4.02688C3.72711 23.7858 3.4761 23.6849 3.27448 23.4832C3.07255 23.2817 2.97167 23.0305 2.97167 22.7309V11.5219H5.41052C5.18 12.2485 5.0647 13.0039 5.0647 13.7879C5.0647 16.0024 5.87182 17.8904 7.48622 19.4532C9.10081 21.0155 11.0438 21.797 13.3155 21.797C14.8146 21.797 16.1983 21.4393 17.4672 20.7244C18.7357 20.0091 19.7383 19.0378 20.4769 17.8096C21.215 16.5814 21.584 15.2408 21.584 13.7879C21.584 13.004 21.4683 12.2487 21.2377 11.5219H23.5731V22.731H23.573V22.7309ZM23.573 7.28401C23.573 7.61844 23.4577 7.90101 23.2267 8.13159C22.9962 8.36236 22.7138 8.47759 22.3792 8.47759H19.3695C19.0353 8.47759 18.7525 8.3623 18.522 8.13159C18.2914 7.90101 18.1761 7.61844 18.1761 7.28401V4.43021C18.1761 4.1073 18.2914 3.8277 18.522 3.59123C18.7525 3.35489 19.0354 3.23657 19.3695 3.23657H22.3792C22.7138 3.23657 22.9962 3.35483 23.2267 3.59123C23.4576 3.8277 23.573 4.1073 23.573 4.43021V7.28401Z" fill="#808080"/>
</g>
<defs>
<clipPath id="clip0_619_86">
<rect width="26.5687" height="26.5687" fill="white" transform="translate(0.0126953 0.278809)"/>
</clipPath>
</defs>
</svg>
