<svg width="28" height="27" viewBox="0 0 28 27" fill="none" xmlns="http://www.w3.org/2000/svg">
<g clip-path="url(#clip0_619_87)">
<path d="M27.2906 5.32511C26.3026 5.75851 25.2498 6.04578 24.1522 6.18527C25.2814 5.51109 26.1432 4.45166 26.5484 3.1747C25.4956 3.80239 24.3332 4.24575 23.0944 4.49318C22.0948 3.42877 20.67 2.76953 19.1158 2.76953C16.1002 2.76953 13.6725 5.21717 13.6725 8.21777C13.6725 8.64952 13.709 9.06465 13.7987 9.45986C9.2704 9.23901 5.26351 7.06868 2.57177 3.76254C2.10184 4.57786 1.82619 5.51109 1.82619 6.51572C1.82619 8.4021 2.7976 10.0743 4.2456 11.0424C3.37049 11.0258 2.51199 10.7717 1.78467 10.3715C1.78467 10.3881 1.78467 10.4097 1.78467 10.4313C1.78467 13.0782 3.67271 15.2767 6.14858 15.7832C5.70522 15.9044 5.222 15.9625 4.72051 15.9625C4.3718 15.9625 4.01976 15.9426 3.68932 15.8696C4.39505 18.0266 6.39766 19.6124 8.77888 19.6639C6.92572 21.1136 4.57272 21.987 2.02545 21.987C1.57876 21.987 1.15034 21.9671 0.721924 21.9123C3.13469 23.4682 5.99415 24.3566 9.07778 24.3566C19.1008 24.3566 24.5806 16.0539 24.5806 8.85708C24.5806 8.6163 24.5723 8.38383 24.5607 8.15301C25.6417 7.38584 26.55 6.42771 27.2906 5.32511Z" fill="#808080"/>
</g>
<defs>
<clipPath id="clip0_619_87">
<rect width="26.5687" height="26.5687" fill="white" transform="translate(0.721924 0.278809)"/>
</clipPath>
</defs>
</svg>
