<svg width="27" height="27" viewBox="0 0 27 27" fill="none" xmlns="http://www.w3.org/2000/svg">
<g clip-path="url(#clip0_619_88)">
<path d="M25.8709 6.19035C25.1502 4.90841 24.3681 4.67262 22.7757 4.58295C21.1849 4.47501 17.1846 4.43018 13.7191 4.43018C10.2469 4.43018 6.24496 4.47501 4.65582 4.58129C3.06668 4.67262 2.2829 4.90675 1.55558 6.19035C0.813322 7.47063 0.431396 9.67583 0.431396 13.5582C0.431396 13.5615 0.431396 13.5632 0.431396 13.5632C0.431396 13.5665 0.431396 13.5681 0.431396 13.5681V13.5715C0.431396 17.4372 0.813322 19.659 1.55558 20.926C2.2829 22.208 3.06502 22.4404 4.65416 22.5484C6.24496 22.6414 10.2469 22.6962 13.7191 22.6962C17.1846 22.6962 21.1849 22.6414 22.7773 22.55C24.3698 22.4421 25.1519 22.2096 25.8726 20.9277C26.6215 19.6607 27.0001 17.4389 27.0001 13.5731C27.0001 13.5731 27.0001 13.5681 27.0001 13.5648C27.0001 13.5648 27.0001 13.5615 27.0001 13.5598C27.0001 9.67583 26.6215 7.47063 25.8709 6.19035ZM10.3947 18.5448V8.58153L18.6974 13.5632L10.3947 18.5448Z" fill="#808080"/>
</g>
<defs>
<clipPath id="clip0_619_88">
<rect width="26.5687" height="26.5687" fill="white" transform="translate(0.431396 0.278809)"/>
</clipPath>
</defs>
</svg>
